<svg xmlns="http://www.w3.org/2000/svg" width="940" height="320" viewBox="0 0 940 320">
<rect width="100%" height="100%" fill="white"/>
<style>text{font-family:Inter,Arial,sans-serif;fill:#171717;font-size:12px}.title{font-size:21px;font-weight:700}.sub{font-size:13px;fill:#555}</style>
<text x="35" y="35" class="title">Frozen semantic proposals, selected only by ecology</text>
<text x="35" y="58" class="sub">24 fixed cases × 8 ecology seeds · identical starts · matched no-famine shadows</text>
<text x="65" y="88" class="sub">granddescendant lineage established by step 80</text>
<line x1="55" y1="235" x2="445" y2="235" stroke="#999"/>
<text x="500" y="88" class="sub">post-restore lineage abundance AUC: famine − shadow</text>
<line x1="485" y1="150" x2="875" y2="150" stroke="#999"/>
<rect x="70" y="181.88" width="58" height="53.12" fill="#bbbbbb" rx="3"/><text x="99" y="255" text-anchor="middle">parent</text><text x="99" y="171.88" text-anchor="middle">0.35</text><rect x="500" y="150.00" width="58" height="37.80" fill="#bbbbbb" rx="3"/><text x="529" y="255" text-anchor="middle">parent</text><text x="529" y="182.80" text-anchor="middle">-14.646</text><rect x="165" y="172.50" width="58" height="62.50" fill="#476f95" rx="3"/><text x="194" y="255" text-anchor="middle">typed</text><text x="194" y="162.50" text-anchor="middle">0.42</text><rect x="595" y="150.00" width="58" height="90.00" fill="#476f95" rx="3"/><text x="624" y="255" text-anchor="middle">typed</text><text x="624" y="235.00" text-anchor="middle">-34.870</text><rect x="260" y="174.84" width="58" height="60.16" fill="#8b8b8b" rx="3"/><text x="289" y="255" text-anchor="middle">random</text><text x="289" y="164.84" text-anchor="middle">0.40</text><rect x="690" y="150.00" width="58" height="67.60" fill="#8b8b8b" rx="3"/><text x="719" y="255" text-anchor="middle">random</text><text x="719" y="212.60" text-anchor="middle">-26.193</text><rect x="355" y="177.19" width="58" height="57.81" fill="#d2643f" rx="3"/><text x="384" y="255" text-anchor="middle">Codex ITT</text><text x="384" y="167.19" text-anchor="middle">0.39</text><rect x="785" y="150.00" width="58" height="39.58" fill="#d2643f" rx="3"/><text x="814" y="255" text-anchor="middle">Codex ITT</text><text x="814" y="184.58" text-anchor="middle">-15.333</text>
<text x="35" y="297" class="sub">Descriptive micro-study only; uncertainty covers the eight ecology seeds, not model sampling.</text>
</svg>
